<svg width="20" height="20" viewBox="0 0 20 20" fill="none" xmlns="http://www.w3.org/2000/svg">
<circle cx="10" cy="10" r="10" fill="white"/>
<path d="M11.9482 4.97336L14.6946 12.8158C14.7352 12.9325 14.6736 13.0602 14.5569 13.1007L13.9212 13.3234C13.8045 13.364 13.6768 13.3024 13.6362 13.1857L13.5793 13.0233L11.0087 13.1047C11.0927 14.1983 10.4285 15.2145 9.39159 15.5773C8.12792 16.0199 6.74465 15.3533 6.30218 14.09C6.20844 13.821 6.16247 13.5425 6.16571 13.2579L5.01122 13.2943L5.08125 13.4942C5.12184 13.6109 5.06024 13.7386 4.94352 13.7792L4.30782 14.0018C4.1911 14.0424 4.06342 13.9808 4.02284 13.8641L2.95365 10.811C2.91306 10.6943 2.97466 10.5666 3.09138 10.526L3.72708 10.3035C3.8438 10.2629 3.97148 10.3245 4.01206 10.4412L4.08156 10.6398L10.9467 5.50598L10.8898 5.34346C10.8492 5.22674 10.9108 5.09906 11.0275 5.05848L11.6632 4.8358C11.7799 4.79522 11.9076 4.85682 11.9482 4.97354V4.97336ZM16.9677 11.903C17.2602 11.9364 17.2097 12.3817 16.9167 12.3483L14.8614 12.1063C14.5689 12.0729 14.6194 11.6275 14.9124 11.6609L16.9677 11.903ZM13.9752 3.9514C14.1832 3.74148 14.5019 4.05753 14.2945 4.26709L12.8392 5.73853C12.6313 5.94845 12.3126 5.6324 12.52 5.42284L13.9752 3.9514ZM15.7209 7.81639C15.9992 7.7196 16.1459 8.1425 15.8681 8.23911L14.0534 8.87481C13.775 8.9716 13.6283 8.5487 13.9061 8.45209L15.7209 7.81639V7.81639ZM10.2187 7.12539C10.4574 6.95353 10.719 7.31645 10.4802 7.48849L5.7613 10.9001C5.52265 11.0719 5.26101 10.709 5.49984 10.537L10.2187 7.12539V7.12539ZM10.5606 13.1185L6.6141 13.2433C6.60854 13.4823 6.64625 13.7165 6.7249 13.9424C7.08585 14.9726 8.2143 15.5149 9.24434 15.1542C10.0959 14.8564 10.6382 14.016 10.5606 13.1185ZM13.4243 12.5803L11.102 5.94953L4.23707 11.0832L4.85624 12.8511C7.7122 12.7608 10.5683 12.6707 13.4245 12.5803H13.4243ZM3.66333 10.7997L3.44999 10.8744L4.37121 13.505L4.58455 13.4303C4.27801 12.5532 3.97058 11.6765 3.66333 10.7997V10.7997ZM14.1981 12.7518L11.5996 5.33179L11.3863 5.40649C12.2501 7.87942 13.1169 10.3565 13.9848 12.8265L14.1981 12.7518Z" fill="black"/>
</svg>
